# xmcd
#
# Track frame offsets:
#	150
#	18759
#	39029
#	57307
#	77713
#	97001
#	113167
#	131386
#	148955
#	167141
#	182732
#	199919
#	215140
#
# Disc length: 3110 seconds
#
# Revision: 1
# Processed by: cddbd v1.5.2PL0 Copyright (c) Steve Scherf et al.
# Submitted via: audiograbber 1.83.01
#
DISCID=b60c240d
DTITLE=Linda Hesse - Hoer auf dein Herz
DYEAR=2014
DGENRE=Pop
TTITLE0=Knutschen, ich kann nichts dafuer
TTITLE1=Verbotene Liebe
TTITLE2=Hoer auf dein Herz
TTITLE3=Freundin und Freund
TTITLE4=Kleine Seen
TTITLE5=Willst du mich jetzt
TTITLE6=Vergiss mich lieber ganz
TTITLE7=Wenn ich an dich denke
TTITLE8=Perfekt
TTITLE9=Banane
TTITLE10=Claire
TTITLE11=Tick Tack
TTITLE12=Oder so
EXTD=
EXTT0=
EXTT1=
EXTT2=
EXTT3=
EXTT4=
EXTT5=
EXTT6=
EXTT7=
EXTT8=
EXTT9=
EXTT10=
EXTT11=
EXTT12=
PLAYORDER=
